<svg xmlns="http://www.w3.org/2000/svg" viewBox="0 0 1600 1000"><defs><linearGradient id="bg" x1="0" x2="1"><stop stop-color="#020617"/><stop offset="1" stop-color="#09051b"/></linearGradient><style>.p{fill:#071426;stroke:#15518a;stroke-width:1.3}.k{fill:#08162b;stroke:#214a7c}.h{fill:#fff;font:800 28px Inter,Arial}.t{fill:#dbeafe;font:15px Inter,Arial}.m{fill:#9fb4ca;font:13px Inter,Arial}.v{fill:#fff;font:800 28px Inter,Arial}.g{fill:#00e88f;font:700 14px Inter,Arial}</style></defs><rect width="1600" height="1000" fill="url(#bg)"/><text x="28" y="58" class="h">AUTO<tspan fill="#00d5ff">DEFI</tspan> <tspan fill="#c026d3">DAO</tspan></text><text x="410" y="45" class="h">Reports</text><text x="410" y="72" class="t">Comprehensive analytics. Transparent performance. Data-driven decisions.</text><rect x="18" y="96" width="220" height="850" rx="16" class="p"/><g class="t" font-size="18"><text x="55" y="155">Dashboard</text><text x="55" y="219">Policies</text><text x="55" y="283">Claims</text><text x="55" y="347">Risk Tiers</text><text x="55" y="411">Reserves</text><text x="55" y="475">Reinsurance</text><text x="55" y="539">Staking (INS)</text><text x="55" y="603">Governance</text><rect x="28" y="621" width="198" height="54" rx="10" fill="#4214a7" stroke="#8b5cf6"/><text x="55" y="657">Reports</text><text x="55" y="721">Analytics</text></g><g transform="translate(230 98)"><rect width="180" height="90" rx="14" class="k"/><text x="55" y="32" class="m">Total Coverage</text><text x="55" y="64" class="v">$132.84M</text><text x="55" y="84" class="g">+9.21%</text></g><g transform="translate(425 98)"><rect width="180" height="90" rx="14" class="k"/><text x="55" y="32" class="m">Claims Paid</text><text x="55" y="64" class="v">$21.47M</text><text x="55" y="84" class="g">+4.28%</text></g><g transform="translate(620 98)"><rect width="180" height="90" rx="14" class="k"/><text x="55" y="32" class="m">Loss Ratio</text><text x="55" y="64" class="v">38.4%</text><text x="55" y="84" class="g">-2.12%</text></g><g transform="translate(815 98)"><rect width="180" height="90" rx="14" class="k"/><text x="55" y="32" class="m">Reserve Ratio</text><text x="55" y="64" class="v">182.6%</text><text x="55" y="84" class="g">Very Strong</text></g><g transform="translate(1010 98)"><rect width="180" height="90" rx="14" class="k"/><text x="55" y="32" class="m">Yield YTD</text><text x="55" y="64" class="v">5.78%</text><text x="55" y="84" class="g">+0.63%</text></g><g transform="translate(1205 98)"><rect width="180" height="90" rx="14" class="k"/><text x="55" y="32" class="m">Cost Ratio</text><text x="55" y="64" class="v">12.7%</text><text x="55" y="84" class="g">-1.09%</text></g><g transform="translate(1400 98)"><rect width="160" height="90" rx="14" class="k"/><text x="45" y="32" class="m">Stakers</text><text x="45" y="64" class="v">5,842</text><text x="45" y="84" class="g">+4.18%</text></g><rect x="230" y="220" width="470" height="260" rx="14" class="p"/><text x="255" y="255" class="h">Coverage Trend</text><polyline points="270,425 330,400 390,385 450,375 510,370 570,350 630,342 675,325" fill="none" stroke="#2563ff" stroke-width="5"/><polyline points="270,445 330,430 390,420 450,405 510,398 570,385 630,380 675,365" fill="none" stroke="#00e88f" stroke-width="4"/><polyline points="270,460 330,455 390,450 450,446 510,440 570,435 630,428 675,420" fill="none" stroke="#a855f7" stroke-width="4"/><rect x="720" y="220" width="410" height="260" rx="14" class="p"/><text x="745" y="255" class="h">Claims Overview</text><circle cx="835" cy="350" r="75" fill="none" stroke="#2563ff" stroke-width="28"/><text x="785" y="356" class="v">$21.47M</text><g class="t"><text x="940" y="310">Approved $15.82M</text><text x="940" y="350">In Review $3.21M</text><text x="940" y="390">Denied $1.37M</text></g><rect x="1150" y="220" width="410" height="260" rx="14" class="p"/><text x="1175" y="255" class="h">Key Performance Indicators</text><g class="t"><text x="1175" y="300">Average Claim Severity: $8,450</text><text x="1175" y="338">Claims Frequency: 42.6</text><text x="1175" y="376">New Policies YTD: 3,512</text><text x="1175" y="414">Retention Rate: 91.4%</text><text x="1175" y="452">Customer Satisfaction: ★★★★★ 4.6/5</text></g><rect x="230" y="500" width="365" height="210" rx="14" class="p"/><text x="255" y="535" class="h">Coverage by Asset Type</text><circle cx="340" cy="615" r="65" fill="none" stroke="#00e88f" stroke-width="24"/><text x="292" y="620" class="v">$132.84M</text><g class="t"><text x="430" y="575">Vehicles 51.5%</text><text x="430" y="610">Property 18.2%</text><text x="430" y="645">Equipment 12.3%</text><text x="430" y="680">Liability 11.1%</text></g><rect x="615" y="500" width="340" height="210" rx="14" class="p"/><text x="640" y="535" class="h">Financial Performance</text><g class="t"><text x="640" y="580">Premiums Earned $48.67M ↑</text><text x="640" y="615">Claims Paid $21.47M ↓</text><text x="640" y="650">Underwriting Profit $18.92M ↑</text><text x="640" y="685">Net Profit $21.78M ↑</text></g><rect x="975" y="500" width="585" height="210" rx="14" class="p"/><text x="1000" y="535" class="h">Loss Ratio Analysis</text><g fill="#7c3aed"><rect x="1020" y="640" width="25" height="50"/><rect x="1065" y="630" width="25" height="60"/><rect x="1110" y="650" width="25" height="40"/><rect x="1155" y="625" width="25" height="65"/><rect x="1200" y="635" width="25" height="55"/><rect x="1245" y="645" width="25" height="45"/><rect x="1290" y="650" width="25" height="40"/><rect x="1335" y="638" width="25" height="52"/><rect x="1380" y="642" width="25" height="48"/><rect x="1425" y="640" width="25" height="50"/></g><line x1="1005" y1="585" x2="1510" y2="585" stroke="#00e88f" stroke-dasharray="8 8"/><rect x="230" y="730" width="390" height="215" rx="14" class="p"/><text x="255" y="765" class="h">Top Claim Types</text><g class="t"><text x="255" y="810">Collision $7.85M</text><text x="255" y="845">Theft $4.32M</text><text x="255" y="880">Weather Damage $3.21M</text><text x="255" y="915">Liability $2.75M</text></g><rect x="640" y="730" width="435" height="215" rx="14" class="p"/><text x="665" y="765" class="h">Recent Reports</text><g class="t"><text x="665" y="810">Monthly Performance Report</text><text x="665" y="845">Claims Summary Report</text><text x="665" y="880">Risk Exposure Report</text><text x="665" y="915">Reserve Adequacy Report</text></g><rect x="1095" y="730" width="465" height="215" rx="14" class="p"/><text x="1120" y="765" class="h">Export Reports</text><g class="t"><text x="1120" y="815">Performance Report | Claims Report | Risk Report</text><text x="1120" y="860">Financial Report | Reserve Report | Custom Report</text></g></svg>