<svg xmlns="http://www.w3.org/2000/svg" viewBox="0 0 1600 1000"><defs><linearGradient id="bg" x1="0" x2="1"><stop stop-color="#020617"/><stop offset="1" stop-color="#09051b"/></linearGradient><linearGradient id="a" x1="0" x2="1"><stop stop-color="#2563ff"/><stop offset="1" stop-color="#00e88f"/></linearGradient><style>.p{fill:#071426;stroke:#15518a;stroke-width:1.3}.k{fill:#08162b;stroke:#214a7c}.h{fill:#fff;font:800 28px Inter,Arial}.t{fill:#dbeafe;font:15px Inter,Arial}.m{fill:#9fb4ca;font:13px Inter,Arial}.v{fill:#fff;font:800 28px Inter,Arial}.g{fill:#00e88f;font:700 14px Inter,Arial}.nav{fill:#dbeafe;font:18px Inter,Arial}</style></defs><rect width="1600" height="1000" fill="url(#bg)"/><text x="28" y="58" class="h">AUTO<tspan fill="#00d5ff">DEFI</tspan> <tspan fill="#c026d3">DAO</tspan></text><text x="410" y="45" class="h">Reserves</text><text x="410" y="72" class="t">Strong reserves. Secure coverage. Sustainable future.</text><rect x="18" y="96" width="220" height="850" rx="16" class="p"/><g class="nav"><text x="55" y="155">Dashboard</text><text x="55" y="219">Policies</text><text x="55" y="283">Claims</text><text x="55" y="347">Risk Tiers</text><rect x="28" y="365" width="198" height="54" rx="10" fill="#4214a7" stroke="#8b5cf6"/><text x="55" y="401">Reserves</text><text x="55" y="465">Reinsurance</text><text x="55" y="529">Staking (INS)</text><text x="55" y="593">Governance</text><text x="55" y="657">Reports</text><text x="55" y="721">Analytics</text></g><g transform="translate(240 98)"><rect width="210" height="90" rx="14" class="k"/><text x="70" y="32" class="m">Total Reserves</text><text x="70" y="64" class="v">$38.67M</text><text x="70" y="84" class="g">+8.32%</text></g><g transform="translate(465 98)"><rect width="210" height="90" rx="14" class="k"/><text x="70" y="32" class="m">Available Reserves</text><text x="70" y="64" class="v">$25.55M</text><text x="70" y="84" class="g">+6.48%</text></g><g transform="translate(690 98)"><rect width="210" height="90" rx="14" class="k"/><text x="70" y="32" class="m">Restricted Reserves</text><text x="70" y="64" class="v">$13.12M</text><text x="70" y="84" class="g">+5.21%</text></g><g transform="translate(915 98)"><rect width="190" height="90" rx="14" class="k"/><text x="70" y="32" class="m">Reserve Ratio</text><text x="70" y="64" class="v">182.6%</text><text x="70" y="84" class="t">Very Strong</text></g><g transform="translate(1120 98)"><rect width="190" height="90" rx="14" class="k"/><text x="70" y="32" class="m">Reserve Runway</text><text x="70" y="64" class="v">14.7</text><text x="70" y="84" class="t">Months</text></g><g transform="translate(1325 98)"><rect width="230" height="90" rx="14" class="k"/><text x="70" y="32" class="m">Reinsurance Capacity</text><text x="70" y="64" class="v">$75.40M</text><text x="70" y="84" class="g">+9.12%</text></g><rect x="240" y="220" width="650" height="295" rx="14" class="p"/><text x="265" y="255" class="h">Reserve Overview</text><circle cx="390" cy="365" r="95" fill="none" stroke="url(#a)" stroke-width="34"/><circle cx="390" cy="365" r="58" fill="#071426"/><text x="335" y="370" class="v">$38.67M</text><g class="t"><text x="550" y="300">Claims Reserve $13.12M — 34.0%</text><text x="550" y="340">Earned Premium Reserve $9.85M — 25.5%</text><text x="550" y="380">Catastrophe Reserve $6.75M — 17.5%</text><text x="550" y="420">Operational Reserve $4.28M — 11.1%</text><text x="550" y="460">Reinsurance Recoverable $3.12M — 8.1%</text></g><rect x="910" y="220" width="235" height="295" rx="14" class="p"/><text x="935" y="255" class="h">Reserve Health</text><path d="M1028 300 l70 38 v95 q-35 48-70 64 q-35-16-70-64 v-95z" fill="none" stroke="#38bdf8" stroke-width="7"/><text x="1000" y="400" fill="#22d3ee" font-size="70" font-weight="800" font-family="Inter,Arial">A</text><text x="973" y="475" fill="#00e88f" font-size="24" font-weight="800" font-family="Inter,Arial">Very Strong</text><rect x="1165" y="220" width="390" height="295" rx="14" class="p"/><text x="1190" y="255" class="h">Reserve Metrics</text><g class="t"><text x="1190" y="305">Reserve Ratio: 182.6%</text><text x="1190" y="345">Minimum Required Reserve: $21.20M</text><text x="1190" y="385">Excess Reserves: $17.47M</text><text x="1190" y="425">Loss Ratio YTD: 38.4%</text><text x="1190" y="465">Claims Paid YTD: $9.12M</text></g><rect x="240" y="535" width="780" height="200" rx="14" class="p"/><text x="265" y="570" class="h">Reserve Balance Trend</text><polyline points="285,685 350,665 420,645 490,650 560,620 630,600 700,590 770,585 840,575 920,555 990,530" fill="none" stroke="#2563ff" stroke-width="4"/><polyline points="285,705 350,690 420,680 490,675 560,660 630,642 700,630 770,628 840,620 920,612 990,600" fill="none" stroke="#00e88f" stroke-width="4"/><rect x="1040" y="535" width="515" height="200" rx="14" class="p"/><text x="1065" y="570" class="h">Reserve Allocation by Tier Exposure</text><g class="t"><rect x="1180" y="592" width="245" height="24" fill="#00e88f"/><text x="1065" y="611">Tier 1</text><text x="1440" y="611">$14.21M</text><rect x="1180" y="632" width="210" height="24" fill="#2563ff"/><text x="1065" y="651">Tier 2</text><text x="1440" y="651">$11.38M</text><rect x="1180" y="672" width="160" height="24" fill="#a855f7"/><text x="1065" y="691">Tier 3</text><text x="1440" y="691">$8.54M</text><rect x="1180" y="712" width="90" height="24" fill="#ef4444"/><text x="1065" y="731">Tier 4</text><text x="1440" y="731">$4.54M</text></g><rect x="240" y="755" width="620" height="190" rx="14" class="p"/><text x="265" y="790" class="h">Reserve Breakdown</text><g class="t"><text x="265" y="830">Claims Reserve — Pay outstanding &amp; future claims — $13.12M</text><text x="265" y="865">Earned Premium Reserve — Rolling 12 months — $9.85M</text><text x="265" y="900">Catastrophe Reserve — Severe loss events — $6.75M</text></g><rect x="880" y="755" width="675" height="190" rx="14" class="p"/><text x="905" y="790" class="h">Reserve Activity</text><g class="t"><text x="905" y="830">May 12 + Deposit — Premium allocation — +$1.25M</text><text x="905" y="865">May 11 + Deposit — Reinsurance recovery — +$850K</text><text x="905" y="900">May 09 - Payout — Claim payment — -$48.7K</text></g></svg>